<?xml version="1.0" encoding="utf-8"?>
<!-- Generator: Adobe Illustrator 17.0.0, SVG Export Plug-In . SVG Version: 6.00 Build 0)  -->
<!DOCTYPE svg PUBLIC "-//W3C//DTD SVG 1.1//EN" "http://www.w3.org/Graphics/SVG/1.1/DTD/svg11.dtd">
<svg version="1.1" id="Layer_1" xmlns="http://www.w3.org/2000/svg" xmlns:xlink="http://www.w3.org/1999/xlink" x="0px" y="0px"
	 width="5000px" height="1363.636px" viewBox="0 0 5000 1363.636" enable-background="new 0 0 5000 1363.636" xml:space="preserve">
<g>
	<path fill-rule="evenodd" clip-rule="evenodd" fill="#62696D" d="M563.238,192.812c13.584,3.569,25.854,9.255,34.494,20.993
		c22.197,30.149,6.454,73.311-30.431,80.632c-33.368,6.625-66.546,13.602-97.662,27.657
		C346.184,377.862,268.685,471.963,241.92,604.61c-37.738,187.033,64.64,372.617,243.765,438.089
		c139.86,51.121,269.963,26.785,384.44-68.824c73.042-61.006,115.82-140.775,130.489-234.746
		c11.426-73.187,2.238-144.321-26.822-212.672c-0.496-1.167-1.19-2.25-3.089-5.794c-2.227,3.33-3.518,6.107-5.545,8.161
		c-46.797,47.425-93.741,94.703-140.43,142.234c-4.465,4.545-8.826,6.469-15.18,6.452c-72.731-0.198-145.463-0.057-218.193-0.253
		c-5.826-0.016-9.812,1.747-13.858,5.85c-39.334,39.871-78.786,79.627-118.369,119.25c-21.957,21.98-52.007,23.477-73.511,4.055
		c-19.957-18.023-22.448-48.904-5.569-69.777c2.331-2.883,4.835-5.645,7.449-8.275c49.016-49.338,98.104-98.601,147.015-148.042
		c4.058-4.102,8.078-5.787,13.873-5.771c72.73,0.191,145.462,0.05,218.191,0.263c6.131,0.019,10.292-1.933,14.495-6.194
		C848,500.782,915.068,433.086,982.113,365.366c8.688-8.775,14.108-8.244,20.303,2.298c18.261,31.078,37.689,61.557,54.302,93.498
		c26.793,51.516,41.977,106.789,48.334,164.574c8.266,75.114,0.279,148.362-25.514,219.313
		c-43.042,118.4-120.266,207.926-230.861,268.146c-61.404,33.434-127.409,51.881-197.272,56.25c-2.33,0.146-4.621,0.904-6.93,1.379
		c-16.459,0-32.919,0-49.379,0c-2.309-0.473-4.597-1.107-6.928-1.392c-17.886-2.19-35.941-3.424-53.647-6.606
		c-110.412-19.844-203.313-71.885-277.936-155.309c-74.209-82.959-115.393-180.565-123.796-291.762
		c-5.628-74.465,4.242-146.903,32.557-215.939c62.159-151.549,172.329-250.311,330.185-295.103
		c17.507-4.968,35.568-7.983,53.372-11.903C553.682,192.812,558.46,192.812,563.238,192.812z"/>
	<path fill-rule="evenodd" clip-rule="evenodd" fill="#62696D" d="M4868.727,450.854c-1.139,2.576-2.527,5.072-3.381,7.739
		c-48.352,151.172-96.654,302.358-144.979,453.54c-1.043,3.266-2.24,6.484-3.51,10.139c-24.773,0-49.445,0.184-74.102-0.326
		c-2.148-0.043-5.291-4.324-6.137-7.182c-13.533-45.736-26.779-91.559-40.072-137.363c-20.828-71.764-41.641-143.531-62.471-215.293
		c-0.65-2.236-1.461-4.425-3.816-6.924c-35.973,122.245-71.947,244.49-107.949,366.828c-26.531,0-52.504,0-79.158,0
		c-49.971-157.717-99.961-315.501-150.279-474.318c17.557,0,34.178,0,50.803,0c7.697,0,15.439,0.491,23.082-0.149
		c6.512-0.548,9.109,1.732,10.877,8.005c17.867,63.516,36.072,126.938,54.182,190.387c17.018,59.625,34.033,119.25,51.064,178.871
		c0.574,2.014,1.307,3.98,2.58,7.828c5.217-18.119,9.982-34.506,14.652-50.918c30.881-108.579,61.809-217.142,92.43-325.793
		c1.725-6.122,4.271-7.862,10.256-7.815c19.908,0.153,39.824,0.03,59.725-0.527c5.871-0.165,8.16,1.743,9.736,7.305
		c29.648,104.519,59.504,208.976,89.318,313.45c5.953,20.855,11.914,41.711,19.262,62.684
		c36.232-127.6,72.465-255.201,108.854-383.351c26.549,0,52.791,0,79.033,0C4868.727,448.732,4868.727,449.792,4868.727,450.854z"/>
	<path fill-rule="evenodd" clip-rule="evenodd" fill="#62696D" d="M1613.026,925.544c-135.22,0.076-240.137-104.731-240.518-240.264
		c-0.381-135.418,104.421-239.68,240.658-239.422c135.921,0.258,240.32,104.243,240.191,239.24
		C1853.228,820.475,1748.286,925.467,1613.026,925.544z M1449.864,689.413c1.651,10.717,2.667,25.686,6.381,39.949
		c17.237,66.191,74.508,118.318,144.532,123.473c50.377,3.707,93.439-12.748,127.45-49.316
		c61.276-65.891,62.381-163.851,4.161-232.063c-43.58-51.059-122.169-69.031-182.998-40.453
		C1484.449,561.512,1453.119,614.452,1449.864,689.413z"/>
	<path fill-rule="evenodd" clip-rule="evenodd" fill="#62696D" d="M4175.385,684.967c0.041,135.242-105.051,240.473-240.252,240.57
		c-135.678,0.1-240.775-105.199-240.467-240.92c0.311-135.655,104.15-238.811,240.344-238.763
		C4070.756,445.903,4175.344,549.943,4175.385,684.967z M4097.039,681.028c-0.986-7.737-2.025-19.635-4.076-31.356
		c-11.602-66.296-66.729-119.956-133.484-130.246c-81.135-12.508-161.566,40.842-181.438,120.858
		c-17.916,72.149,8.412,145.425,70.219,187.056c49.242,33.166,121.002,34.959,170.078,2.578
		C4070.184,795.709,4095.074,746.686,4097.039,681.028z"/>
	<path fill-rule="evenodd" clip-rule="evenodd" fill="#62696D" d="M3536.529,763.762c33.881,52.891,67.295,105.049,101.547,158.518
		c-4.045,0-6.576,0-9.105,0c-22.824,0-45.66-0.283-68.479,0.176c-6.682,0.133-10.367-1.803-13.723-7.699
		c-24.656-43.324-49.791-86.375-74.502-129.67c-2.754-4.826-5.648-6.35-11.172-6.297c-37.158,0.35-74.322,0.254-111.482,0.301
		c-2.879,0.002-5.756,0-9.41,0c0,47.727,0,94.854,0,142.584c-25.789,0-50.807,0-76.299,0c0-157.758,0-315.301,0-473.98
		c2.957,0,5.758,0,8.559,0c57.336,0.001,114.672-0.113,172.006,0.043c36.379,0.098,72.025,4.461,105.203,20.791
		c45.197,22.246,70.377,59.253,77.881,108.369c5.357,35.094,3.395,69.893-9.248,103.493c-13.74,36.513-38.514,62.933-73.787,79.54
		C3542.137,761.049,3539.773,762.206,3536.529,763.762z M3340.256,708.17c45.33-0.859,89.891-1.074,134.387-2.865
		c17.568-0.709,33.953-7.553,48.885-17.461c41.555-27.571,41.322-97.359,20.781-128.319c-17.037-25.684-42.979-36.618-71.826-38.102
		c-43.404-2.234-86.971-1.343-130.471-1.747c-0.447-0.005-0.9,0.436-1.756,0.881C3340.256,582.338,3340.256,644.307,3340.256,708.17
		z"/>
	<path fill-rule="evenodd" clip-rule="evenodd" fill="#62696D" d="M3158.461,511.302c-15.217,20.664-29.352,39.854-43.754,59.409
		c-2.043-1.574-3.74-2.729-5.264-4.078c-35.264-31.263-76.307-49.078-123.518-49.469c-56.129-0.467-102.486,21.618-135.307,67.553
		c-36.377,50.911-42.168,107.321-19.617,164.875c21.609,55.156,63.248,89.18,121.871,100.904
		c47.559,9.512,90.863-3.072,131.568-27.109c2.338-1.381,3.875-6.004,3.895-9.133c0.264-38.215,0.172-76.438,0.172-114.654
		c0-3.129,0-6.256,0-9.943c22.461,0,44.049,0,66.627,0c0,3.111,0,5.945,0,8.781c0,52.553-0.113,105.104,0.152,157.652
		c0.031,6.053-1.938,9.488-6.789,12.914c-53.881,38.104-113.586,58.045-179.695,56.186c-114.223-3.211-209.15-88.543-225.01-201.773
		c-10.992-78.479,8.375-148.091,63.922-205.689c40.188-41.677,90.164-64.213,147.697-70.256
		c58.174-6.11,112.338,6.333,162.572,35.708C3131.863,491.295,3144.508,501.522,3158.461,511.302z"/>
	<path fill-rule="evenodd" clip-rule="evenodd" fill="#62696D" d="M1926.465,448.09c25.366,0,50.19,0,75.916,0
		c0,3.708,0,7.103,0,10.495c0.002,87.069-0.029,174.138,0.023,261.208c0.014,21.594,1.967,42.908,10.044,63.254
		c15.964,40.219,46.281,62.211,88.252,68.891c25.316,4.029,50.392,2.311,74.339-7.34c37.184-14.977,57.696-43.85,65.147-82.242
		c2.709-13.953,3.644-28.438,3.697-42.686c0.323-87.068,0.161-174.138,0.161-261.206c0-3.154,0-6.31,0-10.116
		c25.5,0,50.499,0,76.008,0c0.131,1.586,0.367,3.104,0.364,4.623c-0.11,95.562,0.396,191.13-0.677,286.681
		c-0.443,39.559-10.708,77.119-33.662,110.26c-26.422,38.152-63.23,60.363-108.204,69.688
		c-50.348,10.44-99.849,8.133-147.423-12.473c-46.225-20.016-76.241-55.293-92.316-102.676c-9.134-26.92-12.05-54.828-12.069-83.088
		c-0.064-88.395-0.028-176.792-0.008-265.188C1926.058,453.602,1926.311,451.027,1926.465,448.09z"/>
	<path fill-rule="evenodd" clip-rule="evenodd" fill="#62696D" d="M2739.145,519.434c-47.771,0-94.936,0-143.088,0
		c0,134.376,0,268.197,0,402.432c-25.814,0-50.637,0-76.475,0c0-134.006,0-267.829,0-402.4c-48.115,0-95.229,0-142.836,0
		c0-23.982,0-47.215,0-71.112c120.559,0,241.123,0,362.398,0C2739.145,471.586,2739.145,494.997,2739.145,519.434z"/>
</g>
</svg>
